<?xml version="1.0" encoding="utf-8"?>
<!-- Generator: Adobe Illustrator 23.1.0, SVG Export Plug-In . SVG Version: 6.00 Build 0)  -->
<svg version="1.1" id="Слой_1" xmlns="http://www.w3.org/2000/svg" xmlns:xlink="http://www.w3.org/1999/xlink" x="0px" y="0px"
	 viewBox="0 0 125.75 33" enable-background="new 0 0 125.75 33" xml:space="preserve">
<path d="M18.23,6.94H7.09v7.14h9.31c0.86,0,1.51,0.19,1.93,0.58s0.64,0.9,0.64,1.55s-0.22,1.16-0.65,1.54s-1.07,0.57-1.92,0.57H7.09
	v9.2c0,1.17-0.26,2.03-0.79,2.6c-0.53,0.56-1.2,0.85-2.03,0.85c-0.84,0-1.52-0.29-2.05-0.86s-0.79-1.43-0.79-2.59V6.05
	c0-0.81,0.12-1.48,0.36-1.99c0.24-0.51,0.62-0.89,1.13-1.12C3.44,2.7,4.1,2.58,4.9,2.58h13.33c0.9,0,1.57,0.2,2.01,0.6
	c0.44,0.4,0.66,0.92,0.66,1.57c0,0.66-0.22,1.19-0.66,1.59C19.8,6.74,19.13,6.94,18.23,6.94z M32.7,18.56h-1.98v8.97
	c0,1.18-0.26,2.05-0.78,2.61c-0.52,0.56-1.2,0.84-2.04,0.84c-0.9,0-1.6-0.29-2.09-0.88c-0.5-0.58-0.74-1.44-0.74-2.57V6.05
	c0-1.22,0.27-2.1,0.82-2.65s1.43-0.82,2.65-0.82h9.2c1.27,0,2.35,0.05,3.26,0.16s1.71,0.33,2.44,0.66c0.88,0.37,1.65,0.9,2.32,1.58
	s1.18,1.48,1.53,2.39c0.35,0.91,0.52,1.87,0.52,2.89c0,2.08-0.59,3.75-1.76,4.99c-1.17,1.24-2.95,2.13-5.34,2.65
	c1,0.53,1.96,1.32,2.88,2.36s1.73,2.15,2.45,3.32c0.72,1.17,1.28,2.23,1.68,3.18c0.4,0.95,0.6,1.6,0.6,1.95
	c0,0.37-0.12,0.73-0.35,1.09c-0.23,0.36-0.56,0.65-0.96,0.86c-0.41,0.21-0.88,0.31-1.41,0.31c-0.63,0-1.17-0.15-1.6-0.45
	c-0.43-0.3-0.8-0.68-1.11-1.13c-0.31-0.46-0.73-1.13-1.27-2.02l-2.27-3.77c-0.81-1.38-1.54-2.44-2.18-3.16
	c-0.64-0.72-1.29-1.22-1.95-1.49S33.7,18.56,32.7,18.56z M35.94,6.83h-5.22v7.67h5.07c1.36,0,2.5-0.12,3.43-0.35
	c0.93-0.23,1.63-0.63,2.12-1.2c0.49-0.56,0.73-1.34,0.73-2.33c0-0.77-0.2-1.46-0.59-2.05c-0.39-0.59-0.94-1.03-1.64-1.32
	C39.18,6.97,37.88,6.83,35.94,6.83z M71.55,6.94H58.81v6.86h11.73c0.86,0,1.51,0.19,1.93,0.58c0.42,0.39,0.64,0.9,0.64,1.53
	s-0.21,1.15-0.63,1.55c-0.42,0.4-1.07,0.6-1.94,0.6H58.81v7.94h13.18c0.89,0,1.56,0.21,2.01,0.62c0.45,0.41,0.68,0.96,0.68,1.65
	c0,0.66-0.23,1.2-0.68,1.61c-0.45,0.41-1.12,0.62-2.01,0.62H56.62c-1.23,0-2.12-0.27-2.66-0.82c-0.54-0.55-0.81-1.43-0.81-2.65V6.05
	c0-0.81,0.12-1.48,0.36-1.99c0.24-0.51,0.62-0.89,1.13-1.12c0.51-0.23,1.17-0.35,1.97-0.35h14.93c0.9,0,1.57,0.2,2.01,0.6
	c0.44,0.4,0.66,0.92,0.66,1.57c0,0.66-0.22,1.19-0.66,1.59C73.12,6.74,72.45,6.94,71.55,6.94z M85.39,27.53v-8.86L78.58,8.11
	c-0.6-0.95-1.02-1.69-1.27-2.23c-0.25-0.53-0.37-1-0.37-1.39c0-0.65,0.25-1.21,0.75-1.68c0.5-0.47,1.12-0.7,1.86-0.7
	c0.77,0,1.36,0.22,1.76,0.66c0.4,0.44,1,1.31,1.8,2.62l5.22,8.47l5.27-8.47c0.32-0.52,0.58-0.96,0.8-1.31s0.45-0.69,0.71-1
	c0.26-0.31,0.55-0.55,0.87-0.71s0.71-0.25,1.16-0.25c0.71,0,1.3,0.23,1.78,0.69c0.48,0.46,0.71,1,0.71,1.61
	c0,0.5-0.12,0.99-0.36,1.49s-0.65,1.18-1.24,2.06l-6.99,10.72v8.86c0,1.16-0.27,2.02-0.8,2.59s-1.21,0.86-2.04,0.86
	c-0.84,0-1.52-0.28-2.04-0.85C85.65,29.56,85.39,28.7,85.39,27.53z M118.95,27.34l-1.33-3.5h-11.35l-1.33,3.58
	c-0.52,1.4-0.96,2.34-1.33,2.83c-0.37,0.49-0.97,0.73-1.81,0.73c-0.71,0-1.34-0.26-1.89-0.78s-0.82-1.11-0.82-1.77
	c0-0.38,0.06-0.77,0.19-1.18c0.13-0.41,0.34-0.97,0.63-1.7l7.14-18.13c0.2-0.52,0.45-1.15,0.73-1.88c0.29-0.73,0.59-1.34,0.91-1.82
	c0.32-0.48,0.75-0.87,1.28-1.17c0.53-0.3,1.18-0.45,1.95-0.45c0.79,0,1.44,0.15,1.97,0.45c0.53,0.3,0.95,0.68,1.28,1.15
	c0.32,0.47,0.6,0.97,0.82,1.51c0.22,0.54,0.5,1.26,0.85,2.16l7.29,18.01c0.57,1.37,0.86,2.37,0.86,2.99c0,0.65-0.27,1.24-0.81,1.78
	c-0.54,0.54-1.19,0.81-1.95,0.81c-0.44,0-0.83-0.08-1.14-0.24c-0.32-0.16-0.58-0.38-0.8-0.65c-0.22-0.27-0.45-0.69-0.7-1.26
	C119.34,28.27,119.12,27.77,118.95,27.34z M107.75,19.59h8.34l-4.21-11.52L107.75,19.59z"/>
</svg>
